<svg width="2292" height="2336" viewBox="0 0 2292 2336" fill="none" xmlns="http://www.w3.org/2000/svg">
<g filter="url(#filter0_f_835_19)">
<rect opacity="0.67" width="235.958" height="1328.39" transform="matrix(-0.833501 0.552519 0.547264 0.83696 964.18 -1201.5)" fill="#13004F"/>
<rect opacity="0.67" width="235.958" height="1328.39" transform="matrix(-0.833501 0.552519 0.547264 0.83696 767.509 -1071.13)" fill="#21007B"/>
<rect opacity="0.67" width="235.958" height="1328.39" transform="matrix(-0.833501 0.552519 0.547264 0.83696 570.839 -940.762)" fill="#3107A7"/>
<rect opacity="0.67" width="235.957" height="1328.39" transform="matrix(-0.833501 0.552519 0.547264 0.83696 374.168 -810.391)" fill="#2CF4FF"/>
<rect width="235.958" height="1328.39" transform="matrix(-0.833501 0.552519 0.547264 0.83696 177.498 -680.02)" fill="#82C2BB"/>
<rect width="235.958" height="1328.39" transform="matrix(-0.833501 0.552519 0.547264 0.83696 -19.1738 -549.649)" fill="#8EC7AB"/>
<rect width="235.958" height="1328.39" transform="matrix(-0.833501 0.552519 0.547264 0.83696 -215.844 -419.278)" fill="#88FFBF"/>
<rect width="235.958" height="1328.39" transform="matrix(-0.833501 0.552519 0.547264 0.83696 -412.514 -288.907)" fill="#84EB8E"/>
<rect width="235.958" height="1328.39" transform="matrix(-0.833501 0.552519 0.547264 0.83696 -609.184 -158.536)" fill="#C3F8B4"/>
</g>
<defs>
<filter id="filter0_f_835_19" x="-2389.21" y="-1801.5" width="4680.37" height="4137" filterUnits="userSpaceOnUse" color-interpolation-filters="sRGB">
<feFlood flood-opacity="0" result="BackgroundImageFix"/>
<feBlend mode="normal" in="SourceGraphic" in2="BackgroundImageFix" result="shape"/>
<feGaussianBlur stdDeviation="300" result="effect1_foregroundBlur_835_19"/>
</filter>
</defs>
</svg>
