<svg width="270" height="264" viewBox="0 0 270 264" fill="none" xmlns="http://www.w3.org/2000/svg">
<path fill-rule="evenodd" clip-rule="evenodd" d="M135.096 0C60.3904 0 0 60.3904 0 135.096C0 194.815 38.6946 245.364 92.3749 263.257C99.085 264.599 101.545 260.35 101.545 256.771C101.545 253.64 101.322 242.904 101.322 231.72C63.7454 239.772 55.917 215.616 55.917 215.616C49.878 199.959 40.9313 195.933 40.9313 195.933C28.6295 187.658 41.8259 187.658 41.8259 187.658C55.4697 188.552 62.6271 201.525 62.6271 201.525C74.7051 222.102 94.1643 216.287 101.993 212.708C103.111 203.985 106.69 197.946 110.492 194.591C80.5205 191.46 48.9833 179.829 48.9833 127.938C48.9833 113.176 54.3513 101.098 62.8507 91.7039C61.5087 88.3489 56.8117 74.4815 64.1927 55.917C64.1927 55.917 75.5998 52.3383 101.322 69.7844C112.058 66.8768 123.688 65.3111 135.096 65.3111C146.503 65.3111 158.133 66.8768 168.869 69.7844C194.591 52.3383 205.998 55.917 205.998 55.917C213.379 74.4815 208.682 88.3489 207.34 91.7039C216.063 101.098 221.208 113.176 221.208 127.938C221.208 179.829 189.671 191.236 159.475 194.591C164.396 198.841 168.646 206.893 168.646 219.642C168.646 237.759 168.422 252.298 168.422 256.771C168.422 260.35 170.882 264.599 177.592 263.257C231.273 245.364 269.967 194.815 269.967 135.096C270.191 60.3904 209.577 0 135.096 0Z" fill="white"/>
</svg>
